<?xml version="1.0" encoding="UTF-8" standalone="no"?>
<!DOCTYPE svg PUBLIC "-//W3C//DTD SVG 1.1//EN"
 "http://www.w3.org/Graphics/SVG/1.1/DTD/svg11.dtd">
<!-- Generated by graphviz version 2.43.0 (0)
 -->
<!-- Title: sourcetree Pages: 1 -->
<svg width="1040pt" height="260pt"
 viewBox="0.00 0.00 1039.50 260.00" xmlns="http://www.w3.org/2000/svg" xmlns:xlink="http://www.w3.org/1999/xlink">
<g id="graph0" class="graph" transform="scale(1 1) rotate(0) translate(4 256)">
<title>sourcetree</title>
<polygon fill="white" stroke="transparent" points="-4,4 -4,-256 1035.5,-256 1035.5,4 -4,4"/>
<!-- MulleCurl -->
<g id="node1" class="node">
<title>MulleCurl</title>
<polygon fill="yellow" stroke="black" points="587.5,-252 499.5,-252 499.5,-216 587.5,-216 587.5,-252"/>
<text text-anchor="middle" x="543.5" y="-230.3" font-family="Times,serif" font-size="14.00">MulleCurl</text>
</g>
<!-- craftinfo/curl -->
<g id="node2" class="node">
<title>craftinfo/curl</title>
<polygon fill="lightgrey" stroke="black" points="262.5,-180 152.5,-180 152.5,-144 262.5,-144 262.5,-180"/>
<text text-anchor="middle" x="207.5" y="-158.3" font-family="Times,serif" font-size="14.00">craftinfo/curl</text>
</g>
<!-- MulleCurl&#45;&gt;craftinfo/curl -->
<g id="edge1" class="edge">
<title>MulleCurl&#45;&gt;craftinfo/curl</title>
<path fill="none" stroke="black" d="M499.5,-225.37C447.55,-216.14 358.37,-199.66 272.51,-180.16"/>
<polygon fill="black" stroke="black" points="273.13,-176.71 262.6,-177.89 271.57,-183.53 273.13,-176.71"/>
</g>
<!-- craftinfo/openssl -->
<g id="node3" class="node">
<title>craftinfo/openssl</title>
<polygon fill="lightgrey" stroke="black" points="416.5,-180 280.5,-180 280.5,-144 416.5,-144 416.5,-180"/>
<text text-anchor="middle" x="348.5" y="-158.3" font-family="Times,serif" font-size="14.00">craftinfo/openssl</text>
</g>
<!-- MulleCurl&#45;&gt;craftinfo/openssl -->
<g id="edge2" class="edge">
<title>MulleCurl&#45;&gt;craftinfo/openssl</title>
<path fill="none" stroke="black" d="M499.25,-217.12C471.47,-207.14 435.37,-194.18 405.46,-183.45"/>
<polygon fill="black" stroke="black" points="406.57,-180.13 395.98,-180.04 404.21,-186.72 406.57,-180.13"/>
</g>
<!-- curl -->
<g id="node4" class="node">
<title>curl</title>
<polygon fill="lightgrey" stroke="black" points="488.5,-180 434.5,-180 434.5,-144 488.5,-144 488.5,-180"/>
<text text-anchor="middle" x="461.5" y="-158.3" font-family="Times,serif" font-size="14.00">curl</text>
</g>
<!-- MulleCurl&#45;&gt;curl -->
<g id="edge3" class="edge">
<title>MulleCurl&#45;&gt;curl</title>
<path fill="none" stroke="black" d="M523.23,-215.7C513,-206.97 500.44,-196.24 489.32,-186.75"/>
<polygon fill="black" stroke="black" points="491.41,-183.94 481.54,-180.1 486.87,-189.26 491.41,-183.94"/>
</g>
<!-- MulleObjCStandardFoundation -->
<g id="node5" class="node">
<title>MulleObjCStandardFoundation</title>
<polygon fill="lightgrey" stroke="black" points="746,-180 507,-180 507,-144 746,-144 746,-180"/>
<text text-anchor="middle" x="626.5" y="-158.3" font-family="Times,serif" font-size="14.00">MulleObjCStandardFoundation</text>
</g>
<!-- MulleCurl&#45;&gt;MulleObjCStandardFoundation -->
<g id="edge4" class="edge">
<title>MulleCurl&#45;&gt;MulleObjCStandardFoundation</title>
<path fill="none" stroke="black" d="M564.02,-215.7C574.37,-206.97 587.09,-196.24 598.34,-186.75"/>
<polygon fill="black" stroke="black" points="600.83,-189.23 606.22,-180.1 596.32,-183.88 600.83,-189.23"/>
</g>
<!-- MulleZlib -->
<g id="node6" class="node">
<title>MulleZlib</title>
<polygon fill="lightgrey" stroke="black" points="915,-180 830,-180 830,-144 915,-144 915,-180"/>
<text text-anchor="middle" x="872.5" y="-158.3" font-family="Times,serif" font-size="14.00">MulleZlib</text>
</g>
<!-- MulleCurl&#45;&gt;MulleZlib -->
<g id="edge5" class="edge">
<title>MulleCurl&#45;&gt;MulleZlib</title>
<path fill="none" stroke="black" d="M587.53,-223.63C647.7,-210.83 755.46,-187.9 819.83,-174.21"/>
<polygon fill="black" stroke="black" points="820.72,-177.59 829.77,-172.09 819.27,-170.75 820.72,-177.59"/>
</g>
<!-- openssl -->
<g id="node7" class="node">
<title>openssl</title>
<polygon fill="lightgrey" stroke="black" points="1004,-180 933,-180 933,-144 1004,-144 1004,-180"/>
<text text-anchor="middle" x="968.5" y="-158.3" font-family="Times,serif" font-size="14.00">openssl</text>
</g>
<!-- MulleCurl&#45;&gt;openssl -->
<g id="edge6" class="edge">
<title>MulleCurl&#45;&gt;openssl</title>
<path fill="none" stroke="black" d="M587.56,-230.18C657.37,-225 797.55,-211.68 922.93,-180.11"/>
<polygon fill="black" stroke="black" points="923.89,-183.48 932.7,-177.6 922.15,-176.7 923.89,-183.48"/>
</g>
<!-- MulleObjCContainerFoundation -->
<g id="node8" class="node">
<title>MulleObjCContainerFoundation</title>
<polygon fill="lightgrey" stroke="black" points="243,-108 0,-108 0,-72 243,-72 243,-108"/>
<text text-anchor="middle" x="121.5" y="-86.3" font-family="Times,serif" font-size="14.00">MulleObjCContainerFoundation</text>
</g>
<!-- MulleObjCStandardFoundation&#45;&gt;MulleObjCContainerFoundation -->
<g id="edge7" class="edge">
<title>MulleObjCStandardFoundation&#45;&gt;MulleObjCContainerFoundation</title>
<path fill="none" stroke="black" d="M506.82,-144.41C430.6,-133.85 331.81,-120.15 253.34,-109.27"/>
<polygon fill="black" stroke="black" points="253.77,-105.8 243.39,-107.9 252.81,-112.74 253.77,-105.8"/>
</g>
<!-- MulleObjCTimeFoundation -->
<g id="node9" class="node">
<title>MulleObjCTimeFoundation</title>
<polygon fill="lightgrey" stroke="black" points="469.5,-108 261.5,-108 261.5,-72 469.5,-72 469.5,-108"/>
<text text-anchor="middle" x="365.5" y="-86.3" font-family="Times,serif" font-size="14.00">MulleObjCTimeFoundation</text>
</g>
<!-- MulleObjCStandardFoundation&#45;&gt;MulleObjCTimeFoundation -->
<g id="edge8" class="edge">
<title>MulleObjCStandardFoundation&#45;&gt;MulleObjCTimeFoundation</title>
<path fill="none" stroke="black" d="M562.99,-143.97C525.57,-133.93 478.07,-121.19 439.03,-110.72"/>
<polygon fill="black" stroke="black" points="439.86,-107.32 429.3,-108.11 438.05,-114.08 439.86,-107.32"/>
</g>
<!-- MulleObjCValueFoundation -->
<g id="node10" class="node">
<title>MulleObjCValueFoundation</title>
<polygon fill="lightgrey" stroke="black" points="699.5,-108 487.5,-108 487.5,-72 699.5,-72 699.5,-108"/>
<text text-anchor="middle" x="593.5" y="-86.3" font-family="Times,serif" font-size="14.00">MulleObjCValueFoundation</text>
</g>
<!-- MulleObjCStandardFoundation&#45;&gt;MulleObjCValueFoundation -->
<g id="edge9" class="edge">
<title>MulleObjCStandardFoundation&#45;&gt;MulleObjCValueFoundation</title>
<path fill="none" stroke="black" d="M618.34,-143.7C614.59,-135.73 610.05,-126.1 605.88,-117.26"/>
<polygon fill="black" stroke="black" points="608.99,-115.66 601.56,-108.1 602.66,-118.64 608.99,-115.66"/>
</g>
<!-- mulle&#45;unicode -->
<g id="node11" class="node">
<title>mulle&#45;unicode</title>
<polygon fill="lightgrey" stroke="black" points="833.5,-108 717.5,-108 717.5,-72 833.5,-72 833.5,-108"/>
<text text-anchor="middle" x="775.5" y="-86.3" font-family="Times,serif" font-size="14.00">mulle&#45;unicode</text>
</g>
<!-- MulleObjCStandardFoundation&#45;&gt;mulle&#45;unicode -->
<g id="edge10" class="edge">
<title>MulleObjCStandardFoundation&#45;&gt;mulle&#45;unicode</title>
<path fill="none" stroke="black" d="M662.95,-143.88C683.14,-134.39 708.42,-122.51 729.91,-112.42"/>
<polygon fill="black" stroke="black" points="731.61,-115.49 739.17,-108.07 728.63,-109.15 731.61,-115.49"/>
</g>
<!-- craftinfo/zlib -->
<g id="node14" class="node">
<title>craftinfo/zlib</title>
<polygon fill="lightgrey" stroke="black" points="959,-108 852,-108 852,-72 959,-72 959,-108"/>
<text text-anchor="middle" x="905.5" y="-86.3" font-family="Times,serif" font-size="14.00">craftinfo/zlib</text>
</g>
<!-- MulleZlib&#45;&gt;craftinfo/zlib -->
<g id="edge13" class="edge">
<title>MulleZlib&#45;&gt;craftinfo/zlib</title>
<path fill="none" stroke="black" d="M880.66,-143.7C884.41,-135.73 888.95,-126.1 893.12,-117.26"/>
<polygon fill="black" stroke="black" points="896.34,-118.64 897.44,-108.1 890.01,-115.66 896.34,-118.64"/>
</g>
<!-- zlib -->
<g id="node15" class="node">
<title>zlib</title>
<polygon fill="lightgrey" stroke="black" points="1031.5,-108 977.5,-108 977.5,-72 1031.5,-72 1031.5,-108"/>
<text text-anchor="middle" x="1004.5" y="-86.3" font-family="Times,serif" font-size="14.00">zlib</text>
</g>
<!-- MulleZlib&#45;&gt;zlib -->
<g id="edge14" class="edge">
<title>MulleZlib&#45;&gt;zlib</title>
<path fill="none" stroke="black" d="M904.79,-143.88C924.03,-133.67 948.49,-120.7 968.38,-110.16"/>
<polygon fill="black" stroke="black" points="970.24,-113.13 977.44,-105.35 966.96,-106.94 970.24,-113.13"/>
</g>
<!-- MulleObjC -->
<g id="node12" class="node">
<title>MulleObjC</title>
<polygon fill="lightgrey" stroke="black" points="356.5,-36 264.5,-36 264.5,0 356.5,0 356.5,-36"/>
<text text-anchor="middle" x="310.5" y="-14.3" font-family="Times,serif" font-size="14.00">MulleObjC</text>
</g>
<!-- MulleObjCTimeFoundation&#45;&gt;MulleObjC -->
<g id="edge11" class="edge">
<title>MulleObjCTimeFoundation&#45;&gt;MulleObjC</title>
<path fill="none" stroke="black" d="M351.9,-71.7C345.38,-63.39 337.43,-53.28 330.25,-44.14"/>
<polygon fill="black" stroke="black" points="332.87,-41.81 323.94,-36.1 327.37,-46.13 332.87,-41.81"/>
</g>
<!-- mulle&#45;time -->
<g id="node13" class="node">
<title>mulle&#45;time</title>
<polygon fill="lightgrey" stroke="black" points="468,-36 375,-36 375,0 468,0 468,-36"/>
<text text-anchor="middle" x="421.5" y="-14.3" font-family="Times,serif" font-size="14.00">mulle&#45;time</text>
</g>
<!-- MulleObjCTimeFoundation&#45;&gt;mulle&#45;time -->
<g id="edge12" class="edge">
<title>MulleObjCTimeFoundation&#45;&gt;mulle&#45;time</title>
<path fill="none" stroke="black" d="M379.34,-71.7C385.99,-63.39 394.08,-53.28 401.39,-44.14"/>
<polygon fill="black" stroke="black" points="404.3,-46.1 407.82,-36.1 398.84,-41.73 404.3,-46.1"/>
</g>
</g>
</svg>
