<?xml version="1.0" encoding="UTF-8" standalone="no"?>
<!DOCTYPE svg PUBLIC "-//W3C//DTD SVG 1.1//EN"
 "http://www.w3.org/Graphics/SVG/1.1/DTD/svg11.dtd">
<!-- Generated by graphviz version 2.43.0 (0)
 -->
<!-- Title: sourcetree Pages: 1 -->
<svg width="929pt" height="260pt"
 viewBox="0.00 0.00 928.50 260.00" xmlns="http://www.w3.org/2000/svg" xmlns:xlink="http://www.w3.org/1999/xlink">
<g id="graph0" class="graph" transform="scale(1 1) rotate(0) translate(4 256)">
<title>sourcetree</title>
<polygon fill="white" stroke="transparent" points="-4,4 -4,-256 924.5,-256 924.5,4 -4,4"/>
<!-- MulleCurl -->
<g id="node1" class="node">
<title>MulleCurl</title>
<polygon fill="yellow" stroke="black" points="457,-252 369,-252 369,-216 457,-216 457,-252"/>
<text text-anchor="middle" x="413" y="-230.3" font-family="Times,serif" font-size="14.00">MulleCurl</text>
</g>
<!-- craftinfo/curl -->
<g id="node2" class="node">
<title>craftinfo/curl</title>
<polygon fill="lightgrey" stroke="black" points="110,-180 0,-180 0,-144 110,-144 110,-180"/>
<text text-anchor="middle" x="55" y="-158.3" font-family="Times,serif" font-size="14.00">craftinfo/curl</text>
</g>
<!-- MulleCurl&#45;&gt;craftinfo/curl -->
<g id="edge1" class="edge">
<title>MulleCurl&#45;&gt;craftinfo/curl</title>
<path fill="none" stroke="black" d="M368.94,-226.2C313.22,-217.36 214.16,-200.79 120.06,-180.14"/>
<polygon fill="black" stroke="black" points="120.61,-176.68 110.09,-177.94 119.1,-183.52 120.61,-176.68"/>
</g>
<!-- craftinfo/openssl -->
<g id="node3" class="node">
<title>craftinfo/openssl</title>
<polygon fill="lightgrey" stroke="black" points="264,-180 128,-180 128,-144 264,-144 264,-180"/>
<text text-anchor="middle" x="196" y="-158.3" font-family="Times,serif" font-size="14.00">craftinfo/openssl</text>
</g>
<!-- MulleCurl&#45;&gt;craftinfo/openssl -->
<g id="edge2" class="edge">
<title>MulleCurl&#45;&gt;craftinfo/openssl</title>
<path fill="none" stroke="black" d="M368.83,-218.75C337.11,-208.52 293.92,-194.59 258.65,-183.21"/>
<polygon fill="black" stroke="black" points="259.52,-179.81 248.92,-180.07 257.37,-186.47 259.52,-179.81"/>
</g>
<!-- curl -->
<g id="node4" class="node">
<title>curl</title>
<polygon fill="lightgrey" stroke="black" points="336,-180 282,-180 282,-144 336,-144 336,-180"/>
<text text-anchor="middle" x="309" y="-158.3" font-family="Times,serif" font-size="14.00">curl</text>
</g>
<!-- MulleCurl&#45;&gt;curl -->
<g id="edge3" class="edge">
<title>MulleCurl&#45;&gt;curl</title>
<path fill="none" stroke="black" d="M387.56,-215.88C374.21,-206.89 357.68,-195.76 343.22,-186.03"/>
<polygon fill="black" stroke="black" points="344.79,-182.87 334.54,-180.19 340.88,-188.68 344.79,-182.87"/>
</g>
<!-- mulle&#45;objc&#45;list -->
<g id="node5" class="node">
<title>mulle&#45;objc&#45;list</title>
<polygon fill="lightgrey" stroke="black" points="471.5,-180 354.5,-180 354.5,-144 471.5,-144 471.5,-180"/>
<text text-anchor="middle" x="413" y="-158.3" font-family="Times,serif" font-size="14.00">mulle&#45;objc&#45;list</text>
</g>
<!-- MulleCurl&#45;&gt;mulle&#45;objc&#45;list -->
<g id="edge4" class="edge">
<title>MulleCurl&#45;&gt;mulle&#45;objc&#45;list</title>
<path fill="none" stroke="black" d="M413,-215.7C413,-207.98 413,-198.71 413,-190.11"/>
<polygon fill="black" stroke="black" points="416.5,-190.1 413,-180.1 409.5,-190.1 416.5,-190.1"/>
</g>
<!-- MulleObjCStandardFoundation -->
<g id="node6" class="node">
<title>MulleObjCStandardFoundation</title>
<polygon fill="lightgrey" stroke="black" points="728.5,-180 489.5,-180 489.5,-144 728.5,-144 728.5,-180"/>
<text text-anchor="middle" x="609" y="-158.3" font-family="Times,serif" font-size="14.00">MulleObjCStandardFoundation</text>
</g>
<!-- MulleCurl&#45;&gt;MulleObjCStandardFoundation -->
<g id="edge5" class="edge">
<title>MulleCurl&#45;&gt;MulleObjCStandardFoundation</title>
<path fill="none" stroke="black" d="M457.48,-217.12C485.4,-207.14 521.69,-194.18 551.75,-183.45"/>
<polygon fill="black" stroke="black" points="553.04,-186.7 561.28,-180.04 550.68,-180.11 553.04,-186.7"/>
</g>
<!-- MulleZlib -->
<g id="node7" class="node">
<title>MulleZlib</title>
<polygon fill="lightgrey" stroke="black" points="831.5,-180 746.5,-180 746.5,-144 831.5,-144 831.5,-180"/>
<text text-anchor="middle" x="789" y="-158.3" font-family="Times,serif" font-size="14.00">MulleZlib</text>
</g>
<!-- MulleCurl&#45;&gt;MulleZlib -->
<g id="edge6" class="edge">
<title>MulleCurl&#45;&gt;MulleZlib</title>
<path fill="none" stroke="black" d="M457.19,-227.96C518.06,-220.54 631.18,-205.03 736.47,-179.92"/>
<polygon fill="black" stroke="black" points="737.41,-183.29 746.3,-177.54 735.76,-176.49 737.41,-183.29"/>
</g>
<!-- openssl -->
<g id="node8" class="node">
<title>openssl</title>
<polygon fill="lightgrey" stroke="black" points="920.5,-180 849.5,-180 849.5,-144 920.5,-144 920.5,-180"/>
<text text-anchor="middle" x="885" y="-158.3" font-family="Times,serif" font-size="14.00">openssl</text>
</g>
<!-- MulleCurl&#45;&gt;openssl -->
<g id="edge7" class="edge">
<title>MulleCurl&#45;&gt;openssl</title>
<path fill="none" stroke="black" d="M457.09,-231.11C533.67,-227.05 696.06,-215.06 839.37,-180.1"/>
<polygon fill="black" stroke="black" points="840.35,-183.46 849.21,-177.65 838.67,-176.66 840.35,-183.46"/>
</g>
<!-- MulleObjCContainerFoundation -->
<g id="node9" class="node">
<title>MulleObjCContainerFoundation</title>
<polygon fill="lightgrey" stroke="black" points="352.5,-108 109.5,-108 109.5,-72 352.5,-72 352.5,-108"/>
<text text-anchor="middle" x="231" y="-86.3" font-family="Times,serif" font-size="14.00">MulleObjCContainerFoundation</text>
</g>
<!-- MulleObjCStandardFoundation&#45;&gt;MulleObjCContainerFoundation -->
<g id="edge8" class="edge">
<title>MulleObjCStandardFoundation&#45;&gt;MulleObjCContainerFoundation</title>
<path fill="none" stroke="black" d="M517.01,-143.97C461.46,-133.68 390.55,-120.55 333.24,-109.93"/>
<polygon fill="black" stroke="black" points="333.54,-106.43 323.07,-108.05 332.27,-113.31 333.54,-106.43"/>
</g>
<!-- MulleObjCValueFoundation -->
<g id="node10" class="node">
<title>MulleObjCValueFoundation</title>
<polygon fill="lightgrey" stroke="black" points="583,-108 371,-108 371,-72 583,-72 583,-108"/>
<text text-anchor="middle" x="477" y="-86.3" font-family="Times,serif" font-size="14.00">MulleObjCValueFoundation</text>
</g>
<!-- MulleObjCStandardFoundation&#45;&gt;MulleObjCValueFoundation -->
<g id="edge9" class="edge">
<title>MulleObjCStandardFoundation&#45;&gt;MulleObjCValueFoundation</title>
<path fill="none" stroke="black" d="M576.71,-143.88C559.13,-134.55 537.19,-122.92 518.37,-112.94"/>
<polygon fill="black" stroke="black" points="519.89,-109.78 509.41,-108.19 516.61,-115.97 519.89,-109.78"/>
</g>
<!-- mulle&#45;unicode -->
<g id="node11" class="node">
<title>mulle&#45;unicode</title>
<polygon fill="lightgrey" stroke="black" points="717,-108 601,-108 601,-72 717,-72 717,-108"/>
<text text-anchor="middle" x="659" y="-86.3" font-family="Times,serif" font-size="14.00">mulle&#45;unicode</text>
</g>
<!-- MulleObjCStandardFoundation&#45;&gt;mulle&#45;unicode -->
<g id="edge10" class="edge">
<title>MulleObjCStandardFoundation&#45;&gt;mulle&#45;unicode</title>
<path fill="none" stroke="black" d="M621.36,-143.7C627.23,-135.47 634.37,-125.48 640.84,-116.42"/>
<polygon fill="black" stroke="black" points="643.82,-118.28 646.78,-108.1 638.12,-114.21 643.82,-118.28"/>
</g>
<!-- craftinfo/zlib -->
<g id="node13" class="node">
<title>craftinfo/zlib</title>
<polygon fill="lightgrey" stroke="black" points="842.5,-108 735.5,-108 735.5,-72 842.5,-72 842.5,-108"/>
<text text-anchor="middle" x="789" y="-86.3" font-family="Times,serif" font-size="14.00">craftinfo/zlib</text>
</g>
<!-- MulleZlib&#45;&gt;craftinfo/zlib -->
<g id="edge12" class="edge">
<title>MulleZlib&#45;&gt;craftinfo/zlib</title>
<path fill="none" stroke="black" d="M789,-143.7C789,-135.98 789,-126.71 789,-118.11"/>
<polygon fill="black" stroke="black" points="792.5,-118.1 789,-108.1 785.5,-118.1 792.5,-118.1"/>
</g>
<!-- zlib -->
<g id="node14" class="node">
<title>zlib</title>
<polygon fill="lightgrey" stroke="black" points="915,-108 861,-108 861,-72 915,-72 915,-108"/>
<text text-anchor="middle" x="888" y="-86.3" font-family="Times,serif" font-size="14.00">zlib</text>
</g>
<!-- MulleZlib&#45;&gt;zlib -->
<g id="edge13" class="edge">
<title>MulleZlib&#45;&gt;zlib</title>
<path fill="none" stroke="black" d="M813.22,-143.88C825.92,-134.89 841.66,-123.76 855.42,-114.03"/>
<polygon fill="black" stroke="black" points="857.54,-116.82 863.69,-108.19 853.5,-111.11 857.54,-116.82"/>
</g>
<!-- MulleObjC -->
<g id="node12" class="node">
<title>MulleObjC</title>
<polygon fill="lightgrey" stroke="black" points="523,-36 431,-36 431,0 523,0 523,-36"/>
<text text-anchor="middle" x="477" y="-14.3" font-family="Times,serif" font-size="14.00">MulleObjC</text>
</g>
<!-- MulleObjCValueFoundation&#45;&gt;MulleObjC -->
<g id="edge11" class="edge">
<title>MulleObjCValueFoundation&#45;&gt;MulleObjC</title>
<path fill="none" stroke="black" d="M477,-71.7C477,-63.98 477,-54.71 477,-46.11"/>
<polygon fill="black" stroke="black" points="480.5,-46.1 477,-36.1 473.5,-46.1 480.5,-46.1"/>
</g>
</g>
</svg>
