<?xml version="1.0" encoding="UTF-8" standalone="no"?>
<!DOCTYPE svg PUBLIC "-//W3C//DTD SVG 1.1//EN"
 "http://www.w3.org/Graphics/SVG/1.1/DTD/svg11.dtd">
<!-- Generated by graphviz version 2.43.0 (0)
 -->
<!-- Title: sourcetree Pages: 1 -->
<svg width="445pt" height="116pt"
 viewBox="0.00 0.00 444.50 116.00" xmlns="http://www.w3.org/2000/svg" xmlns:xlink="http://www.w3.org/1999/xlink">
<g id="graph0" class="graph" transform="scale(1 1) rotate(0) translate(4 112)">
<title>sourcetree</title>
<polygon fill="white" stroke="transparent" points="-4,4 -4,-112 440.5,-112 440.5,4 -4,4"/>
<!-- MulleCurl -->
<g id="node1" class="node">
<title>MulleCurl</title>
<polygon fill="yellow" stroke="black" points="275,-108 187,-108 187,-72 275,-72 275,-108"/>
<text text-anchor="middle" x="231" y="-86.3" font-family="Times,serif" font-size="14.00">MulleCurl</text>
</g>
<!-- curl -->
<g id="node2" class="node">
<title>curl</title>
<g id="a_node2"><a xlink:href="https://curl.haxx.se/curl" xlink:title="curl">
<polygon fill="lightgrey" stroke="black" points="54,-36 0,-36 0,0 54,0 54,-36"/>
<text text-anchor="middle" x="27" y="-14.3" font-family="Times,serif" font-size="14.00">curl</text>
</a>
</g>
</g>
<!-- MulleCurl&#45;&gt;curl -->
<g id="edge1" class="edge">
<title>MulleCurl&#45;&gt;curl</title>
<path fill="none" stroke="black" d="M186.92,-76.87C154.84,-67.65 110.29,-54.01 63.69,-36.04"/>
<polygon fill="black" stroke="black" points="64.94,-32.77 54.35,-32.38 62.39,-39.29 64.94,-32.77"/>
</g>
<!-- MulleFoundationBase -->
<g id="node3" class="node">
<title>MulleFoundationBase</title>
<g id="a_node3"><a xlink:href="https://github.com/MulleFoundation/MulleFoundationBase" xlink:title="MulleFoundationBase">
<polygon fill="lightgrey" stroke="black" points="244,-36 72,-36 72,0 244,0 244,-36"/>
<text text-anchor="middle" x="158" y="-14.3" font-family="Times,serif" font-size="14.00">MulleFoundationBase</text>
</a>
</g>
</g>
<!-- MulleCurl&#45;&gt;MulleFoundationBase -->
<g id="edge2" class="edge">
<title>MulleCurl&#45;&gt;MulleFoundationBase</title>
<path fill="none" stroke="black" d="M212.96,-71.7C203.94,-63.05 192.88,-52.45 183.06,-43.03"/>
<polygon fill="black" stroke="black" points="185.48,-40.5 175.84,-36.1 180.63,-45.55 185.48,-40.5"/>
</g>
<!-- MulleZlib -->
<g id="node4" class="node">
<title>MulleZlib</title>
<g id="a_node4"><a xlink:href="https://github.com/MulleWeb/MulleZlib" xlink:title="MulleZlib">
<polygon fill="lightgrey" stroke="black" points="347.5,-36 262.5,-36 262.5,0 347.5,0 347.5,-36"/>
<text text-anchor="middle" x="305" y="-14.3" font-family="Times,serif" font-size="14.00">MulleZlib</text>
</a>
</g>
</g>
<!-- MulleCurl&#45;&gt;MulleZlib -->
<g id="edge3" class="edge">
<title>MulleCurl&#45;&gt;MulleZlib</title>
<path fill="none" stroke="black" d="M249.29,-71.7C258.43,-63.05 269.64,-52.45 279.6,-43.03"/>
<polygon fill="black" stroke="black" points="282.06,-45.52 286.92,-36.1 277.25,-40.43 282.06,-45.52"/>
</g>
<!-- openssl -->
<g id="node5" class="node">
<title>openssl</title>
<g id="a_node5"><a xlink:href="https://github.com/openssl/openssl" xlink:title="openssl">
<polygon fill="lightgrey" stroke="black" points="436.5,-36 365.5,-36 365.5,0 436.5,0 436.5,-36"/>
<text text-anchor="middle" x="401" y="-14.3" font-family="Times,serif" font-size="14.00">openssl</text>
</a>
</g>
</g>
<!-- MulleCurl&#45;&gt;openssl -->
<g id="edge4" class="edge">
<title>MulleCurl&#45;&gt;openssl</title>
<path fill="none" stroke="black" d="M272.59,-71.88C297.78,-61.5 329.92,-48.27 355.75,-37.63"/>
<polygon fill="black" stroke="black" points="357.39,-40.74 365.31,-33.7 354.73,-34.27 357.39,-40.74"/>
</g>
</g>
</svg>
