<?xml version="1.0" encoding="UTF-8" standalone="no"?>
<!DOCTYPE svg PUBLIC "-//W3C//DTD SVG 1.1//EN"
 "http://www.w3.org/Graphics/SVG/1.1/DTD/svg11.dtd">
<!-- Generated by graphviz version 2.43.0 (0)
 -->
<!-- Title: sourcetree Pages: 1 -->
<svg width="2938pt" height="260pt"
 viewBox="0.00 0.00 2938.00 260.00" xmlns="http://www.w3.org/2000/svg" xmlns:xlink="http://www.w3.org/1999/xlink">
<g id="graph0" class="graph" transform="scale(1 1) rotate(0) translate(4 256)">
<title>sourcetree</title>
<polygon fill="white" stroke="transparent" points="-4,4 -4,-256 2934,-256 2934,4 -4,4"/>
<!-- MulleCurl -->
<g id="node1" class="node">
<title>MulleCurl</title>
<polygon fill="yellow" stroke="black" points="1600,-252 1512,-252 1512,-216 1600,-216 1600,-252"/>
<text text-anchor="middle" x="1556" y="-230.3" font-family="Times,serif" font-size="14.00">MulleCurl</text>
</g>
<!-- curl -->
<g id="node2" class="node">
<title>curl</title>
<g id="a_node2"><a xlink:href="https://curl.haxx.se/curl" xlink:title="curl">
<polygon fill="lightgrey" stroke="black" points="1452,-180 1398,-180 1398,-144 1452,-144 1452,-180"/>
<text text-anchor="middle" x="1425" y="-158.3" font-family="Times,serif" font-size="14.00">curl</text>
</a>
</g>
</g>
<!-- MulleCurl&#45;&gt;curl -->
<g id="edge1" class="edge">
<title>MulleCurl&#45;&gt;curl</title>
<path fill="none" stroke="black" d="M1523.95,-215.88C1504.99,-205.74 1480.91,-192.88 1461.26,-182.37"/>
<polygon fill="black" stroke="black" points="1462.76,-179.21 1452.29,-177.58 1459.46,-185.38 1462.76,-179.21"/>
</g>
<!-- MulleFoundationBase -->
<g id="node3" class="node">
<title>MulleFoundationBase</title>
<g id="a_node3"><a xlink:href="https://github.com/MulleFoundation/MulleFoundationBase" xlink:title="MulleFoundationBase">
<polygon fill="lightgrey" stroke="black" points="1642,-180 1470,-180 1470,-144 1642,-144 1642,-180"/>
<text text-anchor="middle" x="1556" y="-158.3" font-family="Times,serif" font-size="14.00">MulleFoundationBase</text>
</a>
</g>
</g>
<!-- MulleCurl&#45;&gt;MulleFoundationBase -->
<g id="edge2" class="edge">
<title>MulleCurl&#45;&gt;MulleFoundationBase</title>
<path fill="none" stroke="black" d="M1556,-215.7C1556,-207.98 1556,-198.71 1556,-190.11"/>
<polygon fill="black" stroke="black" points="1559.5,-190.1 1556,-180.1 1552.5,-190.1 1559.5,-190.1"/>
</g>
<!-- MulleZlib -->
<g id="node4" class="node">
<title>MulleZlib</title>
<g id="a_node4"><a xlink:href="https://github.com/MulleWeb/MulleZlib" xlink:title="MulleZlib">
<polygon fill="lightgrey" stroke="black" points="2345.5,-180 2260.5,-180 2260.5,-144 2345.5,-144 2345.5,-180"/>
<text text-anchor="middle" x="2303" y="-158.3" font-family="Times,serif" font-size="14.00">MulleZlib</text>
</a>
</g>
</g>
<!-- MulleCurl&#45;&gt;MulleZlib -->
<g id="edge3" class="edge">
<title>MulleCurl&#45;&gt;MulleZlib</title>
<path fill="none" stroke="black" d="M1600.21,-228.86C1730.01,-216.69 2109.63,-181.12 2250.01,-167.97"/>
<polygon fill="black" stroke="black" points="2250.47,-171.44 2260.1,-167.02 2249.81,-164.47 2250.47,-171.44"/>
</g>
<!-- MulleObjC -->
<g id="node5" class="node">
<title>MulleObjC</title>
<g id="a_node5"><a xlink:href="https://github.com/mulle-objc/MulleObjC" xlink:title="MulleObjC">
<polygon fill="lightgrey" stroke="black" points="244,-108 152,-108 152,-72 244,-72 244,-108"/>
<text text-anchor="middle" x="198" y="-86.3" font-family="Times,serif" font-size="14.00">MulleObjC</text>
</a>
</g>
</g>
<!-- MulleFoundationBase&#45;&gt;MulleObjC -->
<g id="edge4" class="edge">
<title>MulleFoundationBase&#45;&gt;MulleObjC</title>
<path fill="none" stroke="black" d="M1469.87,-145.02C1466.88,-144.64 1463.92,-144.3 1461,-144 1197.13,-116.61 534.37,-151.19 254.5,-107.91"/>
<polygon fill="black" stroke="black" points="254.73,-104.41 244.3,-106.27 253.62,-111.32 254.73,-104.41"/>
</g>
<!-- MulleObjCArchiverFoundation -->
<g id="node6" class="node">
<title>MulleObjCArchiverFoundation</title>
<g id="a_node6"><a xlink:href="https://github.com/MulleFoundation/MulleObjCArchiverFoundation@*" xlink:title="MulleObjCArchiverFoundation">
<polygon fill="lightgrey" stroke="black" points="495.5,-108 262.5,-108 262.5,-72 495.5,-72 495.5,-108"/>
<text text-anchor="middle" x="379" y="-86.3" font-family="Times,serif" font-size="14.00">MulleObjCArchiverFoundation</text>
</a>
</g>
</g>
<!-- MulleFoundationBase&#45;&gt;MulleObjCArchiverFoundation -->
<g id="edge5" class="edge">
<title>MulleFoundationBase&#45;&gt;MulleObjCArchiverFoundation</title>
<path fill="none" stroke="black" d="M1469.86,-145.05C1466.88,-144.66 1463.92,-144.31 1461,-144 1041.12,-98.76 929.78,-144 505.81,-108.1"/>
<polygon fill="black" stroke="black" points="505.99,-104.61 495.73,-107.24 505.4,-111.58 505.99,-104.61"/>
</g>
<!-- MulleObjCContainerFoundation -->
<g id="node7" class="node">
<title>MulleObjCContainerFoundation</title>
<g id="a_node7"><a xlink:href="https://github.com/MulleFoundation/MulleObjCContainerFoundation@*" xlink:title="MulleObjCContainerFoundation">
<polygon fill="lightgrey" stroke="black" points="756.5,-108 513.5,-108 513.5,-72 756.5,-72 756.5,-108"/>
<text text-anchor="middle" x="635" y="-86.3" font-family="Times,serif" font-size="14.00">MulleObjCContainerFoundation</text>
</a>
</g>
</g>
<!-- MulleFoundationBase&#45;&gt;MulleObjCContainerFoundation -->
<g id="edge6" class="edge">
<title>MulleFoundationBase&#45;&gt;MulleObjCContainerFoundation</title>
<path fill="none" stroke="black" d="M1469.86,-145.1C1466.87,-144.7 1463.91,-144.33 1461,-144 1156.58,-109.03 1075.21,-135.52 766.88,-108.13"/>
<polygon fill="black" stroke="black" points="767.03,-104.63 756.76,-107.22 766.4,-111.6 767.03,-104.63"/>
</g>
<!-- MulleObjCKVCFoundation -->
<g id="node8" class="node">
<title>MulleObjCKVCFoundation</title>
<g id="a_node8"><a xlink:href="https://github.com/MulleFoundation/MulleObjCKVCFoundation@*" xlink:title="MulleObjCKVCFoundation">
<polygon fill="lightgrey" stroke="black" points="977.5,-108 774.5,-108 774.5,-72 977.5,-72 977.5,-108"/>
<text text-anchor="middle" x="876" y="-86.3" font-family="Times,serif" font-size="14.00">MulleObjCKVCFoundation</text>
</a>
</g>
</g>
<!-- MulleFoundationBase&#45;&gt;MulleObjCKVCFoundation -->
<g id="edge7" class="edge">
<title>MulleFoundationBase&#45;&gt;MulleObjCKVCFoundation</title>
<path fill="none" stroke="black" d="M1469.85,-145.19C1466.86,-144.77 1463.91,-144.37 1461,-144 1254.69,-117.77 1198.65,-131.56 987.74,-108.02"/>
<polygon fill="black" stroke="black" points="987.91,-104.52 977.58,-106.87 987.13,-111.48 987.91,-104.52"/>
</g>
<!-- MulleObjCMathFoundation -->
<g id="node9" class="node">
<title>MulleObjCMathFoundation</title>
<g id="a_node9"><a xlink:href="https://github.com/MulleFoundation/MulleObjCMathFoundation@*" xlink:title="MulleObjCMathFoundation">
<polygon fill="lightgrey" stroke="black" points="1206,-108 996,-108 996,-72 1206,-72 1206,-108"/>
<text text-anchor="middle" x="1101" y="-86.3" font-family="Times,serif" font-size="14.00">MulleObjCMathFoundation</text>
</a>
</g>
</g>
<!-- MulleFoundationBase&#45;&gt;MulleObjCMathFoundation -->
<g id="edge8" class="edge">
<title>MulleFoundationBase&#45;&gt;MulleObjCMathFoundation</title>
<path fill="none" stroke="black" d="M1469.81,-145.45C1466.84,-144.96 1463.89,-144.47 1461,-144 1355.13,-126.79 1326,-124.29 1216.43,-108.2"/>
<polygon fill="black" stroke="black" points="1216.68,-104.7 1206.28,-106.71 1215.66,-111.63 1216.68,-104.7"/>
</g>
<!-- MulleObjCPlistFoundation -->
<g id="node10" class="node">
<title>MulleObjCPlistFoundation</title>
<g id="a_node10"><a xlink:href="https://github.com/MulleFoundation/MulleObjCPlistFoundation@*" xlink:title="MulleObjCPlistFoundation">
<polygon fill="lightgrey" stroke="black" points="1429.5,-108 1224.5,-108 1224.5,-72 1429.5,-72 1429.5,-108"/>
<text text-anchor="middle" x="1327" y="-86.3" font-family="Times,serif" font-size="14.00">MulleObjCPlistFoundation</text>
</a>
</g>
</g>
<!-- MulleFoundationBase&#45;&gt;MulleObjCPlistFoundation -->
<g id="edge9" class="edge">
<title>MulleFoundationBase&#45;&gt;MulleObjCPlistFoundation</title>
<path fill="none" stroke="black" d="M1500.27,-143.97C1467.86,-134.06 1426.82,-121.51 1392.82,-111.12"/>
<polygon fill="black" stroke="black" points="1393.56,-107.69 1382.98,-108.11 1391.52,-114.38 1393.56,-107.69"/>
</g>
<!-- MulleObjCRegexFoundation -->
<g id="node11" class="node">
<title>MulleObjCRegexFoundation</title>
<g id="a_node11"><a xlink:href="https://github.com/MulleFoundation/MulleObjCRegexFoundation@*" xlink:title="MulleObjCRegexFoundation">
<polygon fill="lightgrey" stroke="black" points="1664.5,-108 1447.5,-108 1447.5,-72 1664.5,-72 1664.5,-108"/>
<text text-anchor="middle" x="1556" y="-86.3" font-family="Times,serif" font-size="14.00">MulleObjCRegexFoundation</text>
</a>
</g>
</g>
<!-- MulleFoundationBase&#45;&gt;MulleObjCRegexFoundation -->
<g id="edge10" class="edge">
<title>MulleFoundationBase&#45;&gt;MulleObjCRegexFoundation</title>
<path fill="none" stroke="black" d="M1556,-143.7C1556,-135.98 1556,-126.71 1556,-118.11"/>
<polygon fill="black" stroke="black" points="1559.5,-118.1 1556,-108.1 1552.5,-118.1 1559.5,-118.1"/>
</g>
<!-- MulleObjCStandardFoundation -->
<g id="node12" class="node">
<title>MulleObjCStandardFoundation</title>
<g id="a_node12"><a xlink:href="https://github.com/MulleFoundation/MulleObjCStandardFoundation@*" xlink:title="MulleObjCStandardFoundation">
<polygon fill="lightgrey" stroke="black" points="1921.5,-108 1682.5,-108 1682.5,-72 1921.5,-72 1921.5,-108"/>
<text text-anchor="middle" x="1802" y="-86.3" font-family="Times,serif" font-size="14.00">MulleObjCStandardFoundation</text>
</a>
</g>
</g>
<!-- MulleFoundationBase&#45;&gt;MulleObjCStandardFoundation -->
<g id="edge11" class="edge">
<title>MulleFoundationBase&#45;&gt;MulleObjCStandardFoundation</title>
<path fill="none" stroke="black" d="M1615.86,-143.97C1650.98,-133.97 1695.52,-121.3 1732.23,-110.85"/>
<polygon fill="black" stroke="black" points="1733.21,-114.21 1741.87,-108.11 1731.29,-107.48 1733.21,-114.21"/>
</g>
<!-- MulleObjCTimeFoundation -->
<g id="node13" class="node">
<title>MulleObjCTimeFoundation</title>
<g id="a_node13"><a xlink:href="https://github.com/MulleFoundation/MulleObjCTimeFoundation@*" xlink:title="MulleObjCTimeFoundation">
<polygon fill="lightgrey" stroke="black" points="2148,-108 1940,-108 1940,-72 2148,-72 2148,-108"/>
<text text-anchor="middle" x="2044" y="-86.3" font-family="Times,serif" font-size="14.00">MulleObjCTimeFoundation</text>
</a>
</g>
</g>
<!-- MulleFoundationBase&#45;&gt;MulleObjCTimeFoundation -->
<g id="edge12" class="edge">
<title>MulleFoundationBase&#45;&gt;MulleObjCTimeFoundation</title>
<path fill="none" stroke="black" d="M1642.18,-148.97C1718,-138.34 1831.36,-122.34 1930,-108 1930.1,-107.99 1930.2,-107.97 1930.31,-107.96"/>
<polygon fill="black" stroke="black" points="1930.55,-111.46 1939.94,-106.55 1929.54,-104.53 1930.55,-111.46"/>
</g>
<!-- MulleObjCUnicodeFoundation -->
<g id="node14" class="node">
<title>MulleObjCUnicodeFoundation</title>
<g id="a_node14"><a xlink:href="https://github.com/MulleFoundation/MulleObjCUnicodeFoundation@*" xlink:title="MulleObjCUnicodeFoundation">
<polygon fill="lightgrey" stroke="black" points="2397.5,-108 2166.5,-108 2166.5,-72 2397.5,-72 2397.5,-108"/>
<text text-anchor="middle" x="2282" y="-86.3" font-family="Times,serif" font-size="14.00">MulleObjCUnicodeFoundation</text>
</a>
</g>
</g>
<!-- MulleFoundationBase&#45;&gt;MulleObjCUnicodeFoundation -->
<g id="edge13" class="edge">
<title>MulleFoundationBase&#45;&gt;MulleObjCUnicodeFoundation</title>
<path fill="none" stroke="black" d="M1642.22,-154.68C1756.99,-145.98 1966.53,-129.1 2156.09,-108.07"/>
<polygon fill="black" stroke="black" points="2156.7,-111.53 2166.25,-106.94 2155.92,-104.57 2156.7,-111.53"/>
</g>
<!-- MulleObjCUUIDFoundation -->
<g id="node15" class="node">
<title>MulleObjCUUIDFoundation</title>
<g id="a_node15"><a xlink:href="https://github.com/MulleFoundation/MulleObjCUUIDFoundation@*" xlink:title="MulleObjCUUIDFoundation">
<polygon fill="lightgrey" stroke="black" points="2628.5,-108 2415.5,-108 2415.5,-72 2628.5,-72 2628.5,-108"/>
<text text-anchor="middle" x="2522" y="-86.3" font-family="Times,serif" font-size="14.00">MulleObjCUUIDFoundation</text>
</a>
</g>
</g>
<!-- MulleFoundationBase&#45;&gt;MulleObjCUUIDFoundation -->
<g id="edge14" class="edge">
<title>MulleFoundationBase&#45;&gt;MulleObjCUUIDFoundation</title>
<path fill="none" stroke="black" d="M1642.27,-158.04C1794.39,-152.29 2120.44,-137.59 2405.11,-108.15"/>
<polygon fill="black" stroke="black" points="2405.64,-111.62 2415.22,-107.1 2404.91,-104.65 2405.64,-111.62"/>
</g>
<!-- MulleObjCValueFoundation -->
<g id="node16" class="node">
<title>MulleObjCValueFoundation</title>
<g id="a_node16"><a xlink:href="https://github.com/MulleFoundation/MulleObjCValueFoundation@*" xlink:title="MulleObjCValueFoundation">
<polygon fill="lightgrey" stroke="black" points="2858,-108 2646,-108 2646,-72 2858,-72 2858,-108"/>
<text text-anchor="middle" x="2752" y="-86.3" font-family="Times,serif" font-size="14.00">MulleObjCValueFoundation</text>
</a>
</g>
</g>
<!-- MulleFoundationBase&#45;&gt;MulleObjCValueFoundation -->
<g id="edge15" class="edge">
<title>MulleFoundationBase&#45;&gt;MulleObjCValueFoundation</title>
<path fill="none" stroke="black" d="M1642.12,-159.68C1824.02,-156.25 2260.82,-144.71 2635.89,-108.16"/>
<polygon fill="black" stroke="black" points="2636.24,-111.64 2645.85,-107.18 2635.56,-104.68 2636.24,-111.64"/>
</g>
<!-- zlib -->
<g id="node20" class="node">
<title>zlib</title>
<g id="a_node20"><a xlink:href="https://github.com/madler/zlib" xlink:title="zlib">
<polygon fill="lightgrey" stroke="black" points="2930,-108 2876,-108 2876,-72 2930,-72 2930,-108"/>
<text text-anchor="middle" x="2903" y="-86.3" font-family="Times,serif" font-size="14.00">zlib</text>
</a>
</g>
</g>
<!-- MulleZlib&#45;&gt;zlib -->
<g id="edge19" class="edge">
<title>MulleZlib&#45;&gt;zlib</title>
<path fill="none" stroke="black" d="M2345.88,-158.9C2456.58,-153.17 2750.78,-135.98 2865.93,-107.61"/>
<polygon fill="black" stroke="black" points="2867.07,-110.93 2875.86,-105.01 2865.3,-104.16 2867.07,-110.93"/>
</g>
<!-- mulle&#45;objc&#45;cc -->
<g id="node17" class="node">
<title>mulle&#45;objc&#45;cc</title>
<g id="a_node17"><a xlink:href="https://github.com/mulle-cc/mulle-objc-cc" xlink:title="mulle&#45;objc&#45;cc">
<polygon fill="lightgrey" stroke="black" points="110,-36 0,-36 0,0 110,0 110,-36"/>
<text text-anchor="middle" x="55" y="-14.3" font-family="Times,serif" font-size="14.00">mulle&#45;objc&#45;cc</text>
</a>
</g>
</g>
<!-- MulleObjC&#45;&gt;mulle&#45;objc&#45;cc -->
<g id="edge16" class="edge">
<title>MulleObjC&#45;&gt;mulle&#45;objc&#45;cc</title>
<path fill="none" stroke="black" d="M163.02,-71.88C143.8,-62.47 119.77,-50.71 99.26,-40.67"/>
<polygon fill="black" stroke="black" points="100.64,-37.44 90.12,-36.19 97.56,-43.73 100.64,-37.44"/>
</g>
<!-- mulle&#45;objc&#45;debug -->
<g id="node18" class="node">
<title>mulle&#45;objc&#45;debug</title>
<g id="a_node18"><a xlink:href="https://github.com/mulle-objc/mulle-objc-debug" xlink:title="mulle&#45;objc&#45;debug">
<polygon fill="lightgrey" stroke="black" points="267.5,-36 128.5,-36 128.5,0 267.5,0 267.5,-36"/>
<text text-anchor="middle" x="198" y="-14.3" font-family="Times,serif" font-size="14.00">mulle&#45;objc&#45;debug</text>
</a>
</g>
</g>
<!-- MulleObjC&#45;&gt;mulle&#45;objc&#45;debug -->
<g id="edge17" class="edge">
<title>MulleObjC&#45;&gt;mulle&#45;objc&#45;debug</title>
<path fill="none" stroke="black" d="M198,-71.7C198,-63.98 198,-54.71 198,-46.11"/>
<polygon fill="black" stroke="black" points="201.5,-46.1 198,-36.1 194.5,-46.1 201.5,-46.1"/>
</g>
<!-- mulle&#45;objc&#45;runtime -->
<g id="node19" class="node">
<title>mulle&#45;objc&#45;runtime</title>
<g id="a_node19"><a xlink:href="https://github.com/mulle-objc/mulle-objc-runtime" xlink:title="mulle&#45;objc&#45;runtime">
<polygon fill="lightgrey" stroke="black" points="438,-36 286,-36 286,0 438,0 438,-36"/>
<text text-anchor="middle" x="362" y="-14.3" font-family="Times,serif" font-size="14.00">mulle&#45;objc&#45;runtime</text>
</a>
</g>
</g>
<!-- MulleObjC&#45;&gt;mulle&#45;objc&#45;runtime -->
<g id="edge18" class="edge">
<title>MulleObjC&#45;&gt;mulle&#45;objc&#45;runtime</title>
<path fill="none" stroke="black" d="M238.12,-71.88C260.64,-62.26 288.92,-50.19 312.77,-40.01"/>
<polygon fill="black" stroke="black" points="314.19,-43.21 322.01,-36.07 311.44,-36.77 314.19,-43.21"/>
</g>
</g>
</svg>
