<?xml version="1.0" encoding="UTF-8" standalone="no"?>
<!DOCTYPE svg PUBLIC "-//W3C//DTD SVG 1.1//EN"
 "http://www.w3.org/Graphics/SVG/1.1/DTD/svg11.dtd">
<!-- Generated by graphviz version 2.43.0 (0)
 -->
<!-- Title: sourcetree Pages: 1 -->
<svg width="2938pt" height="260pt"
 viewBox="0.00 0.00 2938.00 260.00" xmlns="http://www.w3.org/2000/svg" xmlns:xlink="http://www.w3.org/1999/xlink">
<g id="graph0" class="graph" transform="scale(1 1) rotate(0) translate(4 256)">
<title>sourcetree</title>
<polygon fill="white" stroke="transparent" points="-4,4 -4,-256 2934,-256 2934,4 -4,4"/>
<!-- MulleCurl -->
<g id="node1" class="node">
<title>MulleCurl</title>
<polygon fill="yellow" stroke="black" points="1673,-252 1585,-252 1585,-216 1673,-216 1673,-252"/>
<text text-anchor="middle" x="1629" y="-230.3" font-family="Times,serif" font-size="14.00">MulleCurl</text>
</g>
<!-- curl -->
<g id="node2" class="node">
<title>curl</title>
<g id="a_node2"><a xlink:href="https://curl.haxx.se/curl" xlink:title="curl">
<polygon fill="lightgrey" stroke="black" points="1452,-180 1398,-180 1398,-144 1452,-144 1452,-180"/>
<text text-anchor="middle" x="1425" y="-158.3" font-family="Times,serif" font-size="14.00">curl</text>
</a>
</g>
</g>
<!-- MulleCurl&#45;&gt;curl -->
<g id="edge1" class="edge">
<title>MulleCurl&#45;&gt;curl</title>
<path fill="none" stroke="black" d="M1584.92,-220.87C1552.84,-211.65 1508.29,-198.01 1461.69,-180.04"/>
<polygon fill="black" stroke="black" points="1462.94,-176.77 1452.35,-176.38 1460.39,-183.29 1462.94,-176.77"/>
</g>
<!-- MulleFoundationBase -->
<g id="node3" class="node">
<title>MulleFoundationBase</title>
<g id="a_node3"><a xlink:href="https://github.com/MulleFoundation/MulleFoundationBase" xlink:title="MulleFoundationBase">
<polygon fill="lightgrey" stroke="black" points="1642,-180 1470,-180 1470,-144 1642,-144 1642,-180"/>
<text text-anchor="middle" x="1556" y="-158.3" font-family="Times,serif" font-size="14.00">MulleFoundationBase</text>
</a>
</g>
</g>
<!-- MulleCurl&#45;&gt;MulleFoundationBase -->
<g id="edge2" class="edge">
<title>MulleCurl&#45;&gt;MulleFoundationBase</title>
<path fill="none" stroke="black" d="M1610.96,-215.7C1601.94,-207.05 1590.88,-196.45 1581.06,-187.03"/>
<polygon fill="black" stroke="black" points="1583.48,-184.5 1573.84,-180.1 1578.63,-189.55 1583.48,-184.5"/>
</g>
<!-- MulleZlib -->
<g id="node4" class="node">
<title>MulleZlib</title>
<g id="a_node4"><a xlink:href="https://github.com/MulleWeb/MulleZlib" xlink:title="MulleZlib">
<polygon fill="lightgrey" stroke="black" points="1745.5,-180 1660.5,-180 1660.5,-144 1745.5,-144 1745.5,-180"/>
<text text-anchor="middle" x="1703" y="-158.3" font-family="Times,serif" font-size="14.00">MulleZlib</text>
</a>
</g>
</g>
<!-- MulleCurl&#45;&gt;MulleZlib -->
<g id="edge3" class="edge">
<title>MulleCurl&#45;&gt;MulleZlib</title>
<path fill="none" stroke="black" d="M1647.29,-215.7C1656.43,-207.05 1667.64,-196.45 1677.6,-187.03"/>
<polygon fill="black" stroke="black" points="1680.06,-189.52 1684.92,-180.1 1675.25,-184.43 1680.06,-189.52"/>
</g>
<!-- openssl -->
<g id="node5" class="node">
<title>openssl</title>
<g id="a_node5"><a xlink:href="https://github.com/openssl/openssl" xlink:title="openssl">
<polygon fill="lightgrey" stroke="black" points="1834.5,-180 1763.5,-180 1763.5,-144 1834.5,-144 1834.5,-180"/>
<text text-anchor="middle" x="1799" y="-158.3" font-family="Times,serif" font-size="14.00">openssl</text>
</a>
</g>
</g>
<!-- MulleCurl&#45;&gt;openssl -->
<g id="edge4" class="edge">
<title>MulleCurl&#45;&gt;openssl</title>
<path fill="none" stroke="black" d="M1670.59,-215.88C1695.78,-205.5 1727.92,-192.27 1753.75,-181.63"/>
<polygon fill="black" stroke="black" points="1755.39,-184.74 1763.31,-177.7 1752.73,-178.27 1755.39,-184.74"/>
</g>
<!-- MulleObjC -->
<g id="node6" class="node">
<title>MulleObjC</title>
<g id="a_node6"><a xlink:href="https://github.com/mulle-objc/MulleObjC" xlink:title="MulleObjC">
<polygon fill="lightgrey" stroke="black" points="244,-108 152,-108 152,-72 244,-72 244,-108"/>
<text text-anchor="middle" x="198" y="-86.3" font-family="Times,serif" font-size="14.00">MulleObjC</text>
</a>
</g>
</g>
<!-- MulleFoundationBase&#45;&gt;MulleObjC -->
<g id="edge5" class="edge">
<title>MulleFoundationBase&#45;&gt;MulleObjC</title>
<path fill="none" stroke="black" d="M1469.87,-145.02C1466.88,-144.64 1463.92,-144.3 1461,-144 1197.13,-116.61 534.37,-151.19 254.5,-107.91"/>
<polygon fill="black" stroke="black" points="254.73,-104.41 244.3,-106.27 253.62,-111.32 254.73,-104.41"/>
</g>
<!-- MulleObjCArchiverFoundation -->
<g id="node7" class="node">
<title>MulleObjCArchiverFoundation</title>
<g id="a_node7"><a xlink:href="https://github.com/MulleFoundation/MulleObjCArchiverFoundation@*" xlink:title="MulleObjCArchiverFoundation">
<polygon fill="lightgrey" stroke="black" points="495.5,-108 262.5,-108 262.5,-72 495.5,-72 495.5,-108"/>
<text text-anchor="middle" x="379" y="-86.3" font-family="Times,serif" font-size="14.00">MulleObjCArchiverFoundation</text>
</a>
</g>
</g>
<!-- MulleFoundationBase&#45;&gt;MulleObjCArchiverFoundation -->
<g id="edge6" class="edge">
<title>MulleFoundationBase&#45;&gt;MulleObjCArchiverFoundation</title>
<path fill="none" stroke="black" d="M1469.86,-145.05C1466.88,-144.66 1463.92,-144.31 1461,-144 1041.12,-98.76 929.78,-144 505.81,-108.1"/>
<polygon fill="black" stroke="black" points="505.99,-104.61 495.73,-107.24 505.4,-111.58 505.99,-104.61"/>
</g>
<!-- MulleObjCContainerFoundation -->
<g id="node8" class="node">
<title>MulleObjCContainerFoundation</title>
<g id="a_node8"><a xlink:href="https://github.com/MulleFoundation/MulleObjCContainerFoundation@*" xlink:title="MulleObjCContainerFoundation">
<polygon fill="lightgrey" stroke="black" points="756.5,-108 513.5,-108 513.5,-72 756.5,-72 756.5,-108"/>
<text text-anchor="middle" x="635" y="-86.3" font-family="Times,serif" font-size="14.00">MulleObjCContainerFoundation</text>
</a>
</g>
</g>
<!-- MulleFoundationBase&#45;&gt;MulleObjCContainerFoundation -->
<g id="edge7" class="edge">
<title>MulleFoundationBase&#45;&gt;MulleObjCContainerFoundation</title>
<path fill="none" stroke="black" d="M1469.86,-145.1C1466.87,-144.7 1463.91,-144.33 1461,-144 1156.58,-109.03 1075.21,-135.52 766.88,-108.13"/>
<polygon fill="black" stroke="black" points="767.03,-104.63 756.76,-107.22 766.4,-111.6 767.03,-104.63"/>
</g>
<!-- MulleObjCKVCFoundation -->
<g id="node9" class="node">
<title>MulleObjCKVCFoundation</title>
<g id="a_node9"><a xlink:href="https://github.com/MulleFoundation/MulleObjCKVCFoundation@*" xlink:title="MulleObjCKVCFoundation">
<polygon fill="lightgrey" stroke="black" points="977.5,-108 774.5,-108 774.5,-72 977.5,-72 977.5,-108"/>
<text text-anchor="middle" x="876" y="-86.3" font-family="Times,serif" font-size="14.00">MulleObjCKVCFoundation</text>
</a>
</g>
</g>
<!-- MulleFoundationBase&#45;&gt;MulleObjCKVCFoundation -->
<g id="edge8" class="edge">
<title>MulleFoundationBase&#45;&gt;MulleObjCKVCFoundation</title>
<path fill="none" stroke="black" d="M1469.85,-145.19C1466.86,-144.77 1463.91,-144.37 1461,-144 1254.69,-117.77 1198.65,-131.56 987.74,-108.02"/>
<polygon fill="black" stroke="black" points="987.91,-104.52 977.58,-106.87 987.13,-111.48 987.91,-104.52"/>
</g>
<!-- MulleObjCMathFoundation -->
<g id="node10" class="node">
<title>MulleObjCMathFoundation</title>
<g id="a_node10"><a xlink:href="https://github.com/MulleFoundation/MulleObjCMathFoundation@*" xlink:title="MulleObjCMathFoundation">
<polygon fill="lightgrey" stroke="black" points="1206,-108 996,-108 996,-72 1206,-72 1206,-108"/>
<text text-anchor="middle" x="1101" y="-86.3" font-family="Times,serif" font-size="14.00">MulleObjCMathFoundation</text>
</a>
</g>
</g>
<!-- MulleFoundationBase&#45;&gt;MulleObjCMathFoundation -->
<g id="edge9" class="edge">
<title>MulleFoundationBase&#45;&gt;MulleObjCMathFoundation</title>
<path fill="none" stroke="black" d="M1469.81,-145.45C1466.84,-144.96 1463.89,-144.47 1461,-144 1355.13,-126.79 1326,-124.29 1216.43,-108.2"/>
<polygon fill="black" stroke="black" points="1216.68,-104.7 1206.28,-106.71 1215.66,-111.63 1216.68,-104.7"/>
</g>
<!-- MulleObjCPlistFoundation -->
<g id="node11" class="node">
<title>MulleObjCPlistFoundation</title>
<g id="a_node11"><a xlink:href="https://github.com/MulleFoundation/MulleObjCPlistFoundation@*" xlink:title="MulleObjCPlistFoundation">
<polygon fill="lightgrey" stroke="black" points="1429.5,-108 1224.5,-108 1224.5,-72 1429.5,-72 1429.5,-108"/>
<text text-anchor="middle" x="1327" y="-86.3" font-family="Times,serif" font-size="14.00">MulleObjCPlistFoundation</text>
</a>
</g>
</g>
<!-- MulleFoundationBase&#45;&gt;MulleObjCPlistFoundation -->
<g id="edge10" class="edge">
<title>MulleFoundationBase&#45;&gt;MulleObjCPlistFoundation</title>
<path fill="none" stroke="black" d="M1500.27,-143.97C1467.86,-134.06 1426.82,-121.51 1392.82,-111.12"/>
<polygon fill="black" stroke="black" points="1393.56,-107.69 1382.98,-108.11 1391.52,-114.38 1393.56,-107.69"/>
</g>
<!-- MulleObjCRegexFoundation -->
<g id="node12" class="node">
<title>MulleObjCRegexFoundation</title>
<g id="a_node12"><a xlink:href="https://github.com/MulleFoundation/MulleObjCRegexFoundation@*" xlink:title="MulleObjCRegexFoundation">
<polygon fill="lightgrey" stroke="black" points="1664.5,-108 1447.5,-108 1447.5,-72 1664.5,-72 1664.5,-108"/>
<text text-anchor="middle" x="1556" y="-86.3" font-family="Times,serif" font-size="14.00">MulleObjCRegexFoundation</text>
</a>
</g>
</g>
<!-- MulleFoundationBase&#45;&gt;MulleObjCRegexFoundation -->
<g id="edge11" class="edge">
<title>MulleFoundationBase&#45;&gt;MulleObjCRegexFoundation</title>
<path fill="none" stroke="black" d="M1556,-143.7C1556,-135.98 1556,-126.71 1556,-118.11"/>
<polygon fill="black" stroke="black" points="1559.5,-118.1 1556,-108.1 1552.5,-118.1 1559.5,-118.1"/>
</g>
<!-- MulleObjCStandardFoundation -->
<g id="node13" class="node">
<title>MulleObjCStandardFoundation</title>
<g id="a_node13"><a xlink:href="https://github.com/MulleFoundation/MulleObjCStandardFoundation@*" xlink:title="MulleObjCStandardFoundation">
<polygon fill="lightgrey" stroke="black" points="1921.5,-108 1682.5,-108 1682.5,-72 1921.5,-72 1921.5,-108"/>
<text text-anchor="middle" x="1802" y="-86.3" font-family="Times,serif" font-size="14.00">MulleObjCStandardFoundation</text>
</a>
</g>
</g>
<!-- MulleFoundationBase&#45;&gt;MulleObjCStandardFoundation -->
<g id="edge12" class="edge">
<title>MulleFoundationBase&#45;&gt;MulleObjCStandardFoundation</title>
<path fill="none" stroke="black" d="M1615.86,-143.97C1650.98,-133.97 1695.52,-121.3 1732.23,-110.85"/>
<polygon fill="black" stroke="black" points="1733.21,-114.21 1741.87,-108.11 1731.29,-107.48 1733.21,-114.21"/>
</g>
<!-- MulleObjCTimeFoundation -->
<g id="node14" class="node">
<title>MulleObjCTimeFoundation</title>
<g id="a_node14"><a xlink:href="https://github.com/MulleFoundation/MulleObjCTimeFoundation@*" xlink:title="MulleObjCTimeFoundation">
<polygon fill="lightgrey" stroke="black" points="2148,-108 1940,-108 1940,-72 2148,-72 2148,-108"/>
<text text-anchor="middle" x="2044" y="-86.3" font-family="Times,serif" font-size="14.00">MulleObjCTimeFoundation</text>
</a>
</g>
</g>
<!-- MulleFoundationBase&#45;&gt;MulleObjCTimeFoundation -->
<g id="edge13" class="edge">
<title>MulleFoundationBase&#45;&gt;MulleObjCTimeFoundation</title>
<path fill="none" stroke="black" d="M1642.06,-145.56C1645.41,-145.02 1648.74,-144.5 1652,-144 1772.45,-125.57 1805.51,-125.3 1930.03,-108.12"/>
<polygon fill="black" stroke="black" points="1930.53,-111.58 1939.95,-106.74 1929.57,-104.65 1930.53,-111.58"/>
</g>
<!-- MulleObjCUnicodeFoundation -->
<g id="node15" class="node">
<title>MulleObjCUnicodeFoundation</title>
<g id="a_node15"><a xlink:href="https://github.com/MulleFoundation/MulleObjCUnicodeFoundation@*" xlink:title="MulleObjCUnicodeFoundation">
<polygon fill="lightgrey" stroke="black" points="2397.5,-108 2166.5,-108 2166.5,-72 2397.5,-72 2397.5,-108"/>
<text text-anchor="middle" x="2282" y="-86.3" font-family="Times,serif" font-size="14.00">MulleObjCUnicodeFoundation</text>
</a>
</g>
</g>
<!-- MulleFoundationBase&#45;&gt;MulleObjCUnicodeFoundation -->
<g id="edge14" class="edge">
<title>MulleFoundationBase&#45;&gt;MulleObjCUnicodeFoundation</title>
<path fill="none" stroke="black" d="M1642.03,-145.32C1645.39,-144.85 1648.72,-144.41 1652,-144 1872.04,-116.75 1931.45,-130.75 2156.13,-108.04"/>
<polygon fill="black" stroke="black" points="2156.67,-111.51 2166.26,-107.01 2155.95,-104.54 2156.67,-111.51"/>
</g>
<!-- MulleObjCUUIDFoundation -->
<g id="node16" class="node">
<title>MulleObjCUUIDFoundation</title>
<g id="a_node16"><a xlink:href="https://github.com/MulleFoundation/MulleObjCUUIDFoundation@*" xlink:title="MulleObjCUUIDFoundation">
<polygon fill="lightgrey" stroke="black" points="2628.5,-108 2415.5,-108 2415.5,-72 2628.5,-72 2628.5,-108"/>
<text text-anchor="middle" x="2522" y="-86.3" font-family="Times,serif" font-size="14.00">MulleObjCUUIDFoundation</text>
</a>
</g>
</g>
<!-- MulleFoundationBase&#45;&gt;MulleObjCUUIDFoundation -->
<g id="edge15" class="edge">
<title>MulleFoundationBase&#45;&gt;MulleObjCUUIDFoundation</title>
<path fill="none" stroke="black" d="M1642.02,-145.22C1645.38,-144.78 1648.72,-144.37 1652,-144 1982.59,-107 2070.93,-139.95 2405.26,-108.11"/>
<polygon fill="black" stroke="black" points="2405.61,-111.6 2415.23,-107.15 2404.94,-104.63 2405.61,-111.6"/>
</g>
<!-- MulleObjCValueFoundation -->
<g id="node17" class="node">
<title>MulleObjCValueFoundation</title>
<g id="a_node17"><a xlink:href="https://github.com/MulleFoundation/MulleObjCValueFoundation@*" xlink:title="MulleObjCValueFoundation">
<polygon fill="lightgrey" stroke="black" points="2858,-108 2646,-108 2646,-72 2858,-72 2858,-108"/>
<text text-anchor="middle" x="2752" y="-86.3" font-family="Times,serif" font-size="14.00">MulleObjCValueFoundation</text>
</a>
</g>
</g>
<!-- MulleFoundationBase&#45;&gt;MulleObjCValueFoundation -->
<g id="edge16" class="edge">
<title>MulleFoundationBase&#45;&gt;MulleObjCValueFoundation</title>
<path fill="none" stroke="black" d="M1642.01,-145.17C1645.38,-144.74 1648.72,-144.35 1652,-144 2084.76,-98.01 2199.62,-147.64 2635.82,-108.14"/>
<polygon fill="black" stroke="black" points="2636.21,-111.62 2645.85,-107.23 2635.58,-104.65 2636.21,-111.62"/>
</g>
<!-- zlib -->
<g id="node21" class="node">
<title>zlib</title>
<g id="a_node21"><a xlink:href="https://github.com/madler/zlib" xlink:title="zlib">
<polygon fill="lightgrey" stroke="black" points="2930,-108 2876,-108 2876,-72 2930,-72 2930,-108"/>
<text text-anchor="middle" x="2903" y="-86.3" font-family="Times,serif" font-size="14.00">zlib</text>
</a>
</g>
</g>
<!-- MulleZlib&#45;&gt;zlib -->
<g id="edge20" class="edge">
<title>MulleZlib&#45;&gt;zlib</title>
<path fill="none" stroke="black" d="M1745.6,-146.01C1748.76,-145.23 1751.91,-144.54 1755,-144 1995.29,-101.72 2610.16,-164.3 2865.85,-107.54"/>
<polygon fill="black" stroke="black" points="2866.96,-110.87 2875.91,-105.2 2865.37,-104.06 2866.96,-110.87"/>
</g>
<!-- mulle&#45;objc&#45;cc -->
<g id="node18" class="node">
<title>mulle&#45;objc&#45;cc</title>
<g id="a_node18"><a xlink:href="https://github.com/mulle-cc/mulle-objc-cc" xlink:title="mulle&#45;objc&#45;cc">
<polygon fill="lightgrey" stroke="black" points="110,-36 0,-36 0,0 110,0 110,-36"/>
<text text-anchor="middle" x="55" y="-14.3" font-family="Times,serif" font-size="14.00">mulle&#45;objc&#45;cc</text>
</a>
</g>
</g>
<!-- MulleObjC&#45;&gt;mulle&#45;objc&#45;cc -->
<g id="edge17" class="edge">
<title>MulleObjC&#45;&gt;mulle&#45;objc&#45;cc</title>
<path fill="none" stroke="black" d="M163.02,-71.88C143.8,-62.47 119.77,-50.71 99.26,-40.67"/>
<polygon fill="black" stroke="black" points="100.64,-37.44 90.12,-36.19 97.56,-43.73 100.64,-37.44"/>
</g>
<!-- mulle&#45;objc&#45;debug -->
<g id="node19" class="node">
<title>mulle&#45;objc&#45;debug</title>
<g id="a_node19"><a xlink:href="https://github.com/mulle-objc/mulle-objc-debug" xlink:title="mulle&#45;objc&#45;debug">
<polygon fill="lightgrey" stroke="black" points="267.5,-36 128.5,-36 128.5,0 267.5,0 267.5,-36"/>
<text text-anchor="middle" x="198" y="-14.3" font-family="Times,serif" font-size="14.00">mulle&#45;objc&#45;debug</text>
</a>
</g>
</g>
<!-- MulleObjC&#45;&gt;mulle&#45;objc&#45;debug -->
<g id="edge18" class="edge">
<title>MulleObjC&#45;&gt;mulle&#45;objc&#45;debug</title>
<path fill="none" stroke="black" d="M198,-71.7C198,-63.98 198,-54.71 198,-46.11"/>
<polygon fill="black" stroke="black" points="201.5,-46.1 198,-36.1 194.5,-46.1 201.5,-46.1"/>
</g>
<!-- mulle&#45;objc&#45;runtime -->
<g id="node20" class="node">
<title>mulle&#45;objc&#45;runtime</title>
<g id="a_node20"><a xlink:href="https://github.com/mulle-objc/mulle-objc-runtime" xlink:title="mulle&#45;objc&#45;runtime">
<polygon fill="lightgrey" stroke="black" points="438,-36 286,-36 286,0 438,0 438,-36"/>
<text text-anchor="middle" x="362" y="-14.3" font-family="Times,serif" font-size="14.00">mulle&#45;objc&#45;runtime</text>
</a>
</g>
</g>
<!-- MulleObjC&#45;&gt;mulle&#45;objc&#45;runtime -->
<g id="edge19" class="edge">
<title>MulleObjC&#45;&gt;mulle&#45;objc&#45;runtime</title>
<path fill="none" stroke="black" d="M238.12,-71.88C260.64,-62.26 288.92,-50.19 312.77,-40.01"/>
<polygon fill="black" stroke="black" points="314.19,-43.21 322.01,-36.07 311.44,-36.77 314.19,-43.21"/>
</g>
</g>
</svg>
