<?xml version="1.0" encoding="UTF-8" standalone="no"?>
<!DOCTYPE svg PUBLIC "-//W3C//DTD SVG 1.1//EN"
 "http://www.w3.org/Graphics/SVG/1.1/DTD/svg11.dtd">
<!-- Generated by graphviz version 2.43.0 (0)
 -->
<!-- Title: sourcetree Pages: 1 -->
<svg width="3162pt" height="260pt"
 viewBox="0.00 0.00 3162.00 260.00" xmlns="http://www.w3.org/2000/svg" xmlns:xlink="http://www.w3.org/1999/xlink">
<g id="graph0" class="graph" transform="scale(1 1) rotate(0) translate(4 256)">
<title>sourcetree</title>
<polygon fill="white" stroke="transparent" points="-4,4 -4,-256 3158,-256 3158,4 -4,4"/>
<!-- MulleCurl -->
<g id="node1" class="node">
<title>MulleCurl</title>
<polygon fill="yellow" stroke="black" points="1782,-252 1694,-252 1694,-216 1782,-216 1782,-252"/>
<text text-anchor="middle" x="1738" y="-230.3" font-family="Times,serif" font-size="14.00">MulleCurl</text>
</g>
<!-- curl -->
<g id="node2" class="node">
<title>curl</title>
<g id="a_node2"><a xlink:href="https://unknown.com/" xlink:title="curl">
<polygon fill="lightgrey" stroke="black" points="1561,-180 1507,-180 1507,-144 1561,-144 1561,-180"/>
<text text-anchor="middle" x="1534" y="-158.3" font-family="Times,serif" font-size="14.00">curl</text>
</a>
</g>
</g>
<!-- MulleCurl&#45;&gt;curl -->
<g id="edge1" class="edge">
<title>MulleCurl&#45;&gt;curl</title>
<path fill="none" stroke="black" d="M1693.92,-220.87C1661.84,-211.65 1617.29,-198.01 1570.69,-180.04"/>
<polygon fill="black" stroke="black" points="1571.94,-176.77 1561.35,-176.38 1569.39,-183.29 1571.94,-176.77"/>
</g>
<!-- MulleFoundationBase -->
<g id="node3" class="node">
<title>MulleFoundationBase</title>
<g id="a_node3"><a xlink:href="https://github.com/MulleFoundation/MulleFoundationBase" xlink:title="MulleFoundationBase">
<polygon fill="lightgrey" stroke="black" points="1751,-180 1579,-180 1579,-144 1751,-144 1751,-180"/>
<text text-anchor="middle" x="1665" y="-158.3" font-family="Times,serif" font-size="14.00">MulleFoundationBase</text>
</a>
</g>
</g>
<!-- MulleCurl&#45;&gt;MulleFoundationBase -->
<g id="edge2" class="edge">
<title>MulleCurl&#45;&gt;MulleFoundationBase</title>
<path fill="none" stroke="black" d="M1719.96,-215.7C1710.94,-207.05 1699.88,-196.45 1690.06,-187.03"/>
<polygon fill="black" stroke="black" points="1692.48,-184.5 1682.84,-180.1 1687.63,-189.55 1692.48,-184.5"/>
</g>
<!-- MulleZlib -->
<g id="node4" class="node">
<title>MulleZlib</title>
<g id="a_node4"><a xlink:href="https://github.com/MulleWeb/MulleZlib" xlink:title="MulleZlib">
<polygon fill="lightgrey" stroke="black" points="1854.5,-180 1769.5,-180 1769.5,-144 1854.5,-144 1854.5,-180"/>
<text text-anchor="middle" x="1812" y="-158.3" font-family="Times,serif" font-size="14.00">MulleZlib</text>
</a>
</g>
</g>
<!-- MulleCurl&#45;&gt;MulleZlib -->
<g id="edge3" class="edge">
<title>MulleCurl&#45;&gt;MulleZlib</title>
<path fill="none" stroke="black" d="M1756.29,-215.7C1765.43,-207.05 1776.64,-196.45 1786.6,-187.03"/>
<polygon fill="black" stroke="black" points="1789.06,-189.52 1793.92,-180.1 1784.25,-184.43 1789.06,-189.52"/>
</g>
<!-- openssl -->
<g id="node5" class="node">
<title>openssl</title>
<g id="a_node5"><a xlink:href="https://unknown.com/" xlink:title="openssl">
<polygon fill="lightgrey" stroke="black" points="1943.5,-180 1872.5,-180 1872.5,-144 1943.5,-144 1943.5,-180"/>
<text text-anchor="middle" x="1908" y="-158.3" font-family="Times,serif" font-size="14.00">openssl</text>
</a>
</g>
</g>
<!-- MulleCurl&#45;&gt;openssl -->
<g id="edge4" class="edge">
<title>MulleCurl&#45;&gt;openssl</title>
<path fill="none" stroke="black" d="M1779.59,-215.88C1804.78,-205.5 1836.92,-192.27 1862.75,-181.63"/>
<polygon fill="black" stroke="black" points="1864.39,-184.74 1872.31,-177.7 1861.73,-178.27 1864.39,-184.74"/>
</g>
<!-- MulleObjC -->
<g id="node6" class="node">
<title>MulleObjC</title>
<g id="a_node6"><a xlink:href="https://github.com/mulle-objc/MulleObjC" xlink:title="MulleObjC">
<polygon fill="lightgrey" stroke="black" points="244,-108 152,-108 152,-72 244,-72 244,-108"/>
<text text-anchor="middle" x="198" y="-86.3" font-family="Times,serif" font-size="14.00">MulleObjC</text>
</a>
</g>
</g>
<!-- MulleFoundationBase&#45;&gt;MulleObjC -->
<g id="edge5" class="edge">
<title>MulleFoundationBase&#45;&gt;MulleObjC</title>
<path fill="none" stroke="black" d="M1578.87,-145.01C1575.88,-144.64 1572.92,-144.3 1570,-144 1282.02,-114.47 558.36,-154.75 254.49,-107.91"/>
<polygon fill="black" stroke="black" points="254.72,-104.41 244.3,-106.28 253.62,-111.32 254.72,-104.41"/>
</g>
<!-- MulleObjCArchiverFoundation -->
<g id="node7" class="node">
<title>MulleObjCArchiverFoundation</title>
<g id="a_node7"><a xlink:href="https://github.com/MulleFoundation/MulleObjCArchiverFoundation@*" xlink:title="MulleObjCArchiverFoundation">
<polygon fill="lightgrey" stroke="black" points="495.5,-108 262.5,-108 262.5,-72 495.5,-72 495.5,-108"/>
<text text-anchor="middle" x="379" y="-86.3" font-family="Times,serif" font-size="14.00">MulleObjCArchiverFoundation</text>
</a>
</g>
</g>
<!-- MulleFoundationBase&#45;&gt;MulleObjCArchiverFoundation -->
<g id="edge6" class="edge">
<title>MulleFoundationBase&#45;&gt;MulleObjCArchiverFoundation</title>
<path fill="none" stroke="black" d="M1578.86,-145.03C1575.88,-144.65 1572.92,-144.31 1570,-144 1101.92,-94.47 978.11,-147.23 505.89,-108.11"/>
<polygon fill="black" stroke="black" points="505.99,-104.6 495.73,-107.26 505.4,-111.58 505.99,-104.6"/>
</g>
<!-- MulleObjCContainerFoundation -->
<g id="node8" class="node">
<title>MulleObjCContainerFoundation</title>
<g id="a_node8"><a xlink:href="https://github.com/MulleFoundation/MulleObjCContainerFoundation@*" xlink:title="MulleObjCContainerFoundation">
<polygon fill="lightgrey" stroke="black" points="756.5,-108 513.5,-108 513.5,-72 756.5,-72 756.5,-108"/>
<text text-anchor="middle" x="635" y="-86.3" font-family="Times,serif" font-size="14.00">MulleObjCContainerFoundation</text>
</a>
</g>
</g>
<!-- MulleFoundationBase&#45;&gt;MulleObjCContainerFoundation -->
<g id="edge7" class="edge">
<title>MulleFoundationBase&#45;&gt;MulleObjCContainerFoundation</title>
<path fill="none" stroke="black" d="M1578.86,-145.07C1575.87,-144.68 1572.91,-144.32 1570,-144 1217.37,-104.74 1123.5,-138.61 766.84,-108.12"/>
<polygon fill="black" stroke="black" points="767.02,-104.62 756.75,-107.24 766.42,-111.59 767.02,-104.62"/>
</g>
<!-- MulleObjCKVCFoundation -->
<g id="node9" class="node">
<title>MulleObjCKVCFoundation</title>
<g id="a_node9"><a xlink:href="https://github.com/MulleFoundation/MulleObjCKVCFoundation@*" xlink:title="MulleObjCKVCFoundation">
<polygon fill="lightgrey" stroke="black" points="977.5,-108 774.5,-108 774.5,-72 977.5,-72 977.5,-108"/>
<text text-anchor="middle" x="876" y="-86.3" font-family="Times,serif" font-size="14.00">MulleObjCKVCFoundation</text>
</a>
</g>
</g>
<!-- MulleFoundationBase&#45;&gt;MulleObjCKVCFoundation -->
<g id="edge8" class="edge">
<title>MulleFoundationBase&#45;&gt;MulleObjCKVCFoundation</title>
<path fill="none" stroke="black" d="M1578.85,-145.14C1575.87,-144.73 1572.91,-144.35 1570,-144 1315.52,-113.48 1246.86,-135.11 987.67,-108"/>
<polygon fill="black" stroke="black" points="987.89,-104.51 977.58,-106.93 987.15,-111.47 987.89,-104.51"/>
</g>
<!-- MulleObjCLockFoundation -->
<g id="node10" class="node">
<title>MulleObjCLockFoundation</title>
<g id="a_node10"><a xlink:href="https://github.com/MulleFoundation/MulleObjCLockFoundation@*" xlink:title="MulleObjCLockFoundation">
<polygon fill="lightgrey" stroke="black" points="1202,-108 996,-108 996,-72 1202,-72 1202,-108"/>
<text text-anchor="middle" x="1099" y="-86.3" font-family="Times,serif" font-size="14.00">MulleObjCLockFoundation</text>
</a>
</g>
</g>
<!-- MulleFoundationBase&#45;&gt;MulleObjCLockFoundation -->
<g id="edge9" class="edge">
<title>MulleFoundationBase&#45;&gt;MulleObjCLockFoundation</title>
<path fill="none" stroke="black" d="M1578.83,-145.28C1575.86,-144.83 1572.9,-144.4 1570,-144 1414.44,-122.31 1371.83,-127.8 1212.29,-108.12"/>
<polygon fill="black" stroke="black" points="1212.47,-104.62 1202.11,-106.85 1211.6,-111.56 1212.47,-104.62"/>
</g>
<!-- MulleObjCMathFoundation -->
<g id="node11" class="node">
<title>MulleObjCMathFoundation</title>
<g id="a_node11"><a xlink:href="https://github.com/MulleFoundation/MulleObjCMathFoundation@*" xlink:title="MulleObjCMathFoundation">
<polygon fill="lightgrey" stroke="black" points="1430,-108 1220,-108 1220,-72 1430,-72 1430,-108"/>
<text text-anchor="middle" x="1325" y="-86.3" font-family="Times,serif" font-size="14.00">MulleObjCMathFoundation</text>
</a>
</g>
</g>
<!-- MulleFoundationBase&#45;&gt;MulleObjCMathFoundation -->
<g id="edge10" class="edge">
<title>MulleFoundationBase&#45;&gt;MulleObjCMathFoundation</title>
<path fill="none" stroke="black" d="M1582.26,-143.97C1532.6,-133.74 1469.3,-120.71 1417.92,-110.13"/>
<polygon fill="black" stroke="black" points="1418.31,-106.64 1407.81,-108.05 1416.9,-113.49 1418.31,-106.64"/>
</g>
<!-- MulleObjCPlistFoundation -->
<g id="node12" class="node">
<title>MulleObjCPlistFoundation</title>
<g id="a_node12"><a xlink:href="https://github.com/MulleFoundation/MulleObjCPlistFoundation@*" xlink:title="MulleObjCPlistFoundation">
<polygon fill="lightgrey" stroke="black" points="1653.5,-108 1448.5,-108 1448.5,-72 1653.5,-72 1653.5,-108"/>
<text text-anchor="middle" x="1551" y="-86.3" font-family="Times,serif" font-size="14.00">MulleObjCPlistFoundation</text>
</a>
</g>
</g>
<!-- MulleFoundationBase&#45;&gt;MulleObjCPlistFoundation -->
<g id="edge11" class="edge">
<title>MulleFoundationBase&#45;&gt;MulleObjCPlistFoundation</title>
<path fill="none" stroke="black" d="M1637.11,-143.88C1622.21,-134.72 1603.67,-123.34 1587.62,-113.48"/>
<polygon fill="black" stroke="black" points="1589.35,-110.44 1578.99,-108.19 1585.69,-116.41 1589.35,-110.44"/>
</g>
<!-- MulleObjCRegexFoundation -->
<g id="node13" class="node">
<title>MulleObjCRegexFoundation</title>
<g id="a_node13"><a xlink:href="https://github.com/MulleFoundation/MulleObjCRegexFoundation" xlink:title="MulleObjCRegexFoundation">
<polygon fill="lightgrey" stroke="black" points="1888.5,-108 1671.5,-108 1671.5,-72 1888.5,-72 1888.5,-108"/>
<text text-anchor="middle" x="1780" y="-86.3" font-family="Times,serif" font-size="14.00">MulleObjCRegexFoundation</text>
</a>
</g>
</g>
<!-- MulleFoundationBase&#45;&gt;MulleObjCRegexFoundation -->
<g id="edge12" class="edge">
<title>MulleFoundationBase&#45;&gt;MulleObjCRegexFoundation</title>
<path fill="none" stroke="black" d="M1693.13,-143.88C1708.17,-134.72 1726.87,-123.34 1743.06,-113.48"/>
<polygon fill="black" stroke="black" points="1745.04,-116.38 1751.76,-108.19 1741.4,-110.4 1745.04,-116.38"/>
</g>
<!-- MulleObjCStandardFoundation -->
<g id="node14" class="node">
<title>MulleObjCStandardFoundation</title>
<g id="a_node14"><a xlink:href="https://github.com/MulleFoundation/MulleObjCStandardFoundation@*" xlink:title="MulleObjCStandardFoundation">
<polygon fill="lightgrey" stroke="black" points="2145.5,-108 1906.5,-108 1906.5,-72 2145.5,-72 2145.5,-108"/>
<text text-anchor="middle" x="2026" y="-86.3" font-family="Times,serif" font-size="14.00">MulleObjCStandardFoundation</text>
</a>
</g>
</g>
<!-- MulleFoundationBase&#45;&gt;MulleObjCStandardFoundation -->
<g id="edge13" class="edge">
<title>MulleFoundationBase&#45;&gt;MulleObjCStandardFoundation</title>
<path fill="none" stroke="black" d="M1751.01,-144.32C1804.33,-133.98 1872.96,-120.68 1928.32,-109.94"/>
<polygon fill="black" stroke="black" points="1928.99,-113.38 1938.14,-108.04 1927.66,-106.5 1928.99,-113.38"/>
</g>
<!-- MulleObjCTimeFoundation -->
<g id="node15" class="node">
<title>MulleObjCTimeFoundation</title>
<g id="a_node15"><a xlink:href="https://github.com/MulleFoundation/MulleObjCTimeFoundation@*" xlink:title="MulleObjCTimeFoundation">
<polygon fill="lightgrey" stroke="black" points="2372,-108 2164,-108 2164,-72 2372,-72 2372,-108"/>
<text text-anchor="middle" x="2268" y="-86.3" font-family="Times,serif" font-size="14.00">MulleObjCTimeFoundation</text>
</a>
</g>
</g>
<!-- MulleFoundationBase&#45;&gt;MulleObjCTimeFoundation -->
<g id="edge14" class="edge">
<title>MulleFoundationBase&#45;&gt;MulleObjCTimeFoundation</title>
<path fill="none" stroke="black" d="M1751.04,-145.4C1754.4,-144.91 1757.73,-144.44 1761,-144 1932.05,-121.08 1978.71,-128.79 2153.9,-108.09"/>
<polygon fill="black" stroke="black" points="2154.46,-111.55 2163.97,-106.88 2153.63,-104.6 2154.46,-111.55"/>
</g>
<!-- MulleObjCUnicodeFoundation -->
<g id="node16" class="node">
<title>MulleObjCUnicodeFoundation</title>
<g id="a_node16"><a xlink:href="https://github.com/MulleFoundation/MulleObjCUnicodeFoundation@*" xlink:title="MulleObjCUnicodeFoundation">
<polygon fill="lightgrey" stroke="black" points="2621.5,-108 2390.5,-108 2390.5,-72 2621.5,-72 2621.5,-108"/>
<text text-anchor="middle" x="2506" y="-86.3" font-family="Times,serif" font-size="14.00">MulleObjCUnicodeFoundation</text>
</a>
</g>
</g>
<!-- MulleFoundationBase&#45;&gt;MulleObjCUnicodeFoundation -->
<g id="edge15" class="edge">
<title>MulleFoundationBase&#45;&gt;MulleObjCUnicodeFoundation</title>
<path fill="none" stroke="black" d="M1751.02,-145.26C1754.39,-144.81 1757.72,-144.38 1761,-144 2031.8,-112.27 2104.5,-134.07 2379.96,-108.05"/>
<polygon fill="black" stroke="black" points="2380.64,-111.5 2390.26,-107.06 2379.97,-104.53 2380.64,-111.5"/>
</g>
<!-- MulleObjCUUIDFoundation -->
<g id="node17" class="node">
<title>MulleObjCUUIDFoundation</title>
<g id="a_node17"><a xlink:href="https://github.com/MulleFoundation/MulleObjCUUIDFoundation@*" xlink:title="MulleObjCUUIDFoundation">
<polygon fill="lightgrey" stroke="black" points="2852.5,-108 2639.5,-108 2639.5,-72 2852.5,-72 2852.5,-108"/>
<text text-anchor="middle" x="2746" y="-86.3" font-family="Times,serif" font-size="14.00">MulleObjCUUIDFoundation</text>
</a>
</g>
</g>
<!-- MulleFoundationBase&#45;&gt;MulleObjCUUIDFoundation -->
<g id="edge16" class="edge">
<title>MulleFoundationBase&#45;&gt;MulleObjCUUIDFoundation</title>
<path fill="none" stroke="black" d="M1751.01,-145.19C1754.38,-144.76 1757.72,-144.36 1761,-144 2142.44,-102.52 2243.98,-143.63 2629.2,-108.11"/>
<polygon fill="black" stroke="black" points="2629.6,-111.59 2639.23,-107.17 2628.95,-104.62 2629.6,-111.59"/>
</g>
<!-- MulleObjCValueFoundation -->
<g id="node18" class="node">
<title>MulleObjCValueFoundation</title>
<g id="a_node18"><a xlink:href="https://github.com/MulleFoundation/MulleObjCValueFoundation@*" xlink:title="MulleObjCValueFoundation">
<polygon fill="lightgrey" stroke="black" points="3082,-108 2870,-108 2870,-72 3082,-72 3082,-108"/>
<text text-anchor="middle" x="2976" y="-86.3" font-family="Times,serif" font-size="14.00">MulleObjCValueFoundation</text>
</a>
</g>
</g>
<!-- MulleFoundationBase&#45;&gt;MulleObjCValueFoundation -->
<g id="edge17" class="edge">
<title>MulleFoundationBase&#45;&gt;MulleObjCValueFoundation</title>
<path fill="none" stroke="black" d="M1751.01,-145.16C1754.38,-144.73 1757.72,-144.34 1761,-144 2244.62,-93.53 2372.66,-151.38 2859.75,-108.15"/>
<polygon fill="black" stroke="black" points="2860.21,-111.62 2869.86,-107.24 2859.58,-104.65 2860.21,-111.62"/>
</g>
<!-- zlib -->
<g id="node22" class="node">
<title>zlib</title>
<g id="a_node22"><a xlink:href="https://github.com/madler/zlib" xlink:title="zlib">
<polygon fill="lightgrey" stroke="black" points="3154,-108 3100,-108 3100,-72 3154,-72 3154,-108"/>
<text text-anchor="middle" x="3127" y="-86.3" font-family="Times,serif" font-size="14.00">zlib</text>
</a>
</g>
</g>
<!-- MulleZlib&#45;&gt;zlib -->
<g id="edge21" class="edge">
<title>MulleZlib&#45;&gt;zlib</title>
<path fill="none" stroke="black" d="M1854.6,-146C1857.76,-145.22 1860.91,-144.54 1864,-144 2129.58,-97.69 2809.55,-169.86 3090.1,-107.48"/>
<polygon fill="black" stroke="black" points="3090.96,-110.88 3099.91,-105.21 3089.38,-104.06 3090.96,-110.88"/>
</g>
<!-- mulle&#45;objc&#45;cc -->
<g id="node19" class="node">
<title>mulle&#45;objc&#45;cc</title>
<g id="a_node19"><a xlink:href="https://github.com/mulle-cc/mulle-objc-cc" xlink:title="mulle&#45;objc&#45;cc">
<polygon fill="lightgrey" stroke="black" points="110,-36 0,-36 0,0 110,0 110,-36"/>
<text text-anchor="middle" x="55" y="-14.3" font-family="Times,serif" font-size="14.00">mulle&#45;objc&#45;cc</text>
</a>
</g>
</g>
<!-- MulleObjC&#45;&gt;mulle&#45;objc&#45;cc -->
<g id="edge18" class="edge">
<title>MulleObjC&#45;&gt;mulle&#45;objc&#45;cc</title>
<path fill="none" stroke="black" d="M163.02,-71.88C143.8,-62.47 119.77,-50.71 99.26,-40.67"/>
<polygon fill="black" stroke="black" points="100.64,-37.44 90.12,-36.19 97.56,-43.73 100.64,-37.44"/>
</g>
<!-- mulle&#45;objc&#45;debug -->
<g id="node20" class="node">
<title>mulle&#45;objc&#45;debug</title>
<g id="a_node20"><a xlink:href="https://github.com/mulle-objc/mulle-objc-debug" xlink:title="mulle&#45;objc&#45;debug">
<polygon fill="lightgrey" stroke="black" points="267.5,-36 128.5,-36 128.5,0 267.5,0 267.5,-36"/>
<text text-anchor="middle" x="198" y="-14.3" font-family="Times,serif" font-size="14.00">mulle&#45;objc&#45;debug</text>
</a>
</g>
</g>
<!-- MulleObjC&#45;&gt;mulle&#45;objc&#45;debug -->
<g id="edge19" class="edge">
<title>MulleObjC&#45;&gt;mulle&#45;objc&#45;debug</title>
<path fill="none" stroke="black" d="M198,-71.7C198,-63.98 198,-54.71 198,-46.11"/>
<polygon fill="black" stroke="black" points="201.5,-46.1 198,-36.1 194.5,-46.1 201.5,-46.1"/>
</g>
<!-- mulle&#45;objc&#45;runtime -->
<g id="node21" class="node">
<title>mulle&#45;objc&#45;runtime</title>
<g id="a_node21"><a xlink:href="https://github.com/mulle-objc/mulle-objc-runtime" xlink:title="mulle&#45;objc&#45;runtime">
<polygon fill="lightgrey" stroke="black" points="438,-36 286,-36 286,0 438,0 438,-36"/>
<text text-anchor="middle" x="362" y="-14.3" font-family="Times,serif" font-size="14.00">mulle&#45;objc&#45;runtime</text>
</a>
</g>
</g>
<!-- MulleObjC&#45;&gt;mulle&#45;objc&#45;runtime -->
<g id="edge20" class="edge">
<title>MulleObjC&#45;&gt;mulle&#45;objc&#45;runtime</title>
<path fill="none" stroke="black" d="M238.12,-71.88C260.64,-62.26 288.92,-50.19 312.77,-40.01"/>
<polygon fill="black" stroke="black" points="314.19,-43.21 322.01,-36.07 311.44,-36.77 314.19,-43.21"/>
</g>
</g>
</svg>
